<?xml version="1.0" standalone="no"?>
<!DOCTYPE svg PUBLIC "-//W3C//DTD SVG 20010904//EN"
 "http://www.w3.org/TR/2001/REC-SVG-20010904/DTD/svg10.dtd">
<svg version="1.0" xmlns="http://www.w3.org/2000/svg"
 width="646.000000pt" height="352.000000pt" viewBox="0 0 646.000000 352.000000"
 preserveAspectRatio="xMidYMid meet">
<metadata>
Created by potrace 1.16, written by Peter Selinger 2001-2019
</metadata>
<g transform="translate(0.000000,352.000000) scale(0.100000,-0.100000)"
fill="#000000" stroke="none">
<path d="M1193 2787 c9 -15 24 -38 33 -52 9 -14 14 -29 10 -33 -4 -4 -38 -12
-75 -18 -37 -6 -78 -15 -92 -19 -23 -7 -23 -6 -5 7 30 24 10 38 -52 38 -104 0
-228 -42 -329 -111 l-42 -29 9 30 c5 16 11 34 15 40 3 5 -1 10 -9 10 -32 0
-124 -143 -141 -219 -4 -20 -14 -35 -26 -38 -13 -4 -19 -16 -21 -46 -3 -39 -5
-42 -40 -50 -36 -9 -49 -29 -28 -42 6 -4 3 -16 -9 -31 -16 -21 -19 -39 -17
-122 1 -74 6 -105 19 -125 20 -31 22 -44 4 -28 -8 6 -17 8 -20 4 -13 -12 -6
-188 9 -248 9 -33 18 -71 21 -85 3 -14 29 -75 58 -136 48 -100 63 -121 137
-192 97 -94 185 -164 318 -252 52 -35 105 -74 116 -86 29 -30 95 -47 154 -39
174 24 409 310 512 625 39 117 62 210 54 217 -4 4 -15 2 -24 -3 -16 -10 -17 0
-17 130 -1 124 1 143 17 154 14 10 18 27 18 74 0 43 6 71 21 97 l21 37 -21 38
c-12 20 -21 48 -21 62 0 25 -2 25 -42 19 l-43 -6 27 18 c33 23 89 93 83 103
-2 4 -25 10 -51 14 -61 8 -122 36 -182 83 -27 22 -63 45 -81 52 -17 8 -31 20
-31 28 0 20 -56 99 -76 107 -8 3 -21 3 -26 -1 -7 -3 -8 -1 -4 5 9 15 -26 29
-96 38 l-52 7 17 -26z m147 -94 c0 -7 -4 -13 -8 -13 -4 0 -6 -16 -4 -35 5 -44
-9 -82 -64 -165 -46 -70 -107 -135 -104 -110 4 30 -1 37 -45 59 -45 22 -90 25
-90 6 0 -16 -15 -35 -28 -35 -6 0 -2 7 9 15 10 8 16 15 11 15 -12 0 -77 -44
-77 -53 0 -4 10 -1 23 8 13 8 27 12 30 8 11 -10 -13 -33 -34 -33 -17 0 -18 -3
-7 -22 7 -13 13 -24 14 -25 0 -2 19 6 42 17 22 11 47 20 54 20 23 -1 85 -53
130 -110 121 -151 165 -256 175 -408 3 -51 10 -95 14 -98 22 -13 34 46 33 161
0 135 -10 170 -68 258 -21 32 -36 60 -33 64 3 3 20 0 38 -6 45 -16 72 -14 62
3 -12 21 -139 126 -152 126 -16 0 -14 4 18 52 35 52 77 149 86 201 6 30 10 35
19 24 6 -8 33 -26 60 -42 27 -15 72 -45 100 -66 27 -21 69 -44 93 -51 24 -7
43 -15 43 -19 0 -10 -51 -30 -96 -36 -24 -3 -44 -9 -44 -13 0 -4 12 -29 27
-56 22 -40 24 -46 9 -41 -10 4 -29 10 -43 14 -24 5 -25 4 -19 -18 4 -13 9 -69
12 -124 3 -55 7 -106 10 -114 7 -21 51 23 80 80 26 52 61 77 44 33 -6 -14 -10
-61 -10 -105 0 -68 -4 -86 -27 -128 -31 -55 -23 -81 11 -38 12 15 25 24 29 21
10 -10 8 -99 -4 -159 -23 -124 -23 -129 -6 -122 23 9 22 -10 -7 -85 -53 -141
-144 -299 -236 -409 -95 -113 -165 -163 -243 -175 l-42 -7 50 54 c60 64 104
144 90 158 -7 7 -30 3 -70 -14 -33 -13 -72 -25 -88 -25 -27 0 -26 2 30 61 70
73 79 87 60 95 -9 3 -36 -16 -68 -48 -30 -29 -75 -64 -100 -77 l-46 -24 -32
23 c-23 16 -36 19 -43 12 -12 -12 -8 -24 19 -61 17 -24 17 -24 -4 -13 -39 21
-174 133 -238 196 -132 133 -198 244 -234 393 -10 43 -17 80 -15 82 2 2 14
-10 28 -25 19 -22 27 -26 36 -17 9 8 7 25 -9 72 -30 86 -27 136 10 216 27 57
31 74 26 118 -6 46 -5 49 8 31 7 -12 17 -32 20 -47 10 -38 32 -41 44 -5 17 47
13 105 -9 148 -29 57 -25 100 15 178 l35 67 -2 -81 c-2 -92 4 -109 32 -94 19
10 62 94 74 145 8 31 33 65 48 65 5 0 1 -11 -8 -25 -18 -28 -13 -85 10 -104
19 -16 52 25 59 73 4 22 12 44 18 50 9 8 10 6 4 -9 -16 -39 -16 -91 -2 -152 8
-34 11 -60 7 -58 -12 7 -57 -42 -79 -87 -16 -32 -22 -38 -27 -25 -3 10 1 28
10 41 32 49 60 156 37 141 -14 -8 -57 -89 -82 -152 -29 -78 -31 -236 -2 -340
l19 -71 -43 30 c-24 17 -43 36 -43 41 0 5 -6 7 -12 4 -7 -2 -23 5 -36 17 -31
28 -42 10 -42 -67 0 -36 -4 -56 -10 -52 -13 8 -13 -30 0 -74 7 -27 7 -32 -2
-23 -19 19 -22 124 -5 183 9 29 14 55 12 57 -2 2 -11 -21 -20 -53 -21 -71 -21
-146 -1 -187 9 -17 14 -33 12 -35 -4 -5 -46 13 -68 29 -32 23 -32 -3 3 -74 44
-92 101 -181 153 -239 22 -25 60 -69 84 -97 24 -29 52 -57 63 -62 19 -11 19
-9 13 57 -5 61 -9 71 -37 93 -54 42 -94 87 -121 136 -14 25 -26 48 -26 50 0 2
11 4 24 4 55 0 72 26 39 62 -16 18 -5 26 13 9 23 -23 292 -121 331 -121 13 0
43 10 66 21 75 39 200 179 159 179 -4 0 -23 -11 -42 -25 -33 -25 -90 -48 -144
-60 -24 -5 -27 -10 -23 -31 4 -25 3 -25 -37 -19 -103 17 -286 123 -331 191
-17 26 -17 27 1 19 51 -21 139 -45 165 -45 38 0 38 22 -1 50 -47 33 -70 89
-76 183 l-5 82 43 -47 c65 -71 90 -60 48 22 -31 60 -27 127 10 178 31 43 37
62 20 62 -5 0 -10 7 -10 15 0 13 3 13 20 3 16 -10 23 -10 36 4 13 12 14 20 5
37 -7 12 -9 26 -6 31 3 6 2 10 -3 10 -14 0 -36 105 -28 135 4 16 2 33 -6 42
-10 12 -8 18 12 33 31 23 33 21 18 -17 -6 -16 -8 -38 -5 -48 6 -14 17 -8 68
39 42 39 68 56 87 56 15 0 50 7 77 16 35 11 68 13 108 9 l59 -6 -7 43 c-4 24
-12 50 -19 58 -6 8 1 5 16 -5 15 -11 28 -26 28 -32z"/>
<path d="M1062 2570 c-18 -11 -30 -24 -27 -29 3 -5 0 -13 -6 -17 -8 -4 -9 -3
-5 4 11 19 -9 14 -27 -6 -24 -26 -21 -33 9 -22 33 13 91 13 99 0 9 -14 82 -60
94 -60 6 0 16 10 22 22 10 18 8 24 -10 40 -13 9 -46 21 -74 24 -37 5 -46 9
-32 14 11 4 35 5 54 2 43 -7 34 13 -15 34 -42 18 -43 18 -82 -6z"/>
<path d="M1370 2354 c0 -9 13 -33 30 -54 35 -44 77 -131 86 -177 3 -18 10 -30
15 -27 16 9 10 100 -11 166 -18 57 -18 64 -4 75 14 10 13 13 -5 22 -11 6 -40
11 -65 11 -36 0 -46 -4 -46 -16z"/>
<path d="M993 2289 c-18 -12 -33 -25 -33 -30 0 -5 -7 -9 -15 -9 -8 0 -17 -11
-21 -25 -3 -14 -14 -30 -23 -35 -14 -9 -14 -12 7 -26 12 -9 22 -21 22 -26 0
-6 -7 -5 -15 2 -16 13 -18 11 -28 -36 -6 -29 1 -36 53 -54 25 -9 44 -21 42
-28 -4 -19 17 -52 32 -52 8 0 16 -6 19 -14 4 -9 18 -13 37 -12 39 3 90 56 90
95 0 21 8 31 35 44 34 16 45 39 25 52 -5 3 -10 15 -10 26 0 24 -22 49 -44 49
-9 0 -15 3 -15 8 4 22 -5 35 -43 62 -48 35 -71 37 -115 9z m113 -31 c27 -19
30 -26 24 -47 -5 -14 -11 -38 -14 -54 l-7 -28 21 21 c32 32 62 19 41 -17 -10
-17 -10 -17 -11 0 0 21 -26 23 -34 2 -3 -8 -17 -15 -31 -15 -15 0 -24 -4 -20
-10 4 -6 12 -7 18 -4 7 4 9 4 5 -1 -11 -12 11 -35 26 -29 10 4 13 -6 13 -35 0
-24 -5 -42 -13 -45 -8 -3 -14 -12 -14 -20 0 -10 -6 -13 -15 -10 -8 4 -15 2
-15 -4 0 -17 -35 -8 -47 13 -6 11 -15 20 -20 20 -4 0 -7 6 -7 13 1 6 -12 23
-28 37 -27 23 -28 25 -8 25 14 0 19 4 13 13 -4 6 -9 21 -10 32 -3 19 -2 19 11
3 7 -10 19 -18 26 -18 10 0 10 -3 0 -15 -7 -8 -9 -15 -5 -15 9 0 34 31 35 43
0 5 -8 6 -19 2 -18 -5 -43 15 -47 39 -1 6 -5 19 -10 30 -6 16 -5 17 16 6 21
-11 22 -10 16 6 -6 17 -6 17 12 1 23 -21 36 -21 52 -2 10 12 9 15 -8 15 -47 0
-52 64 -5 68 15 1 41 -8 59 -20z"/>
<path d="M1433 1876 c18 -127 -59 -437 -138 -557 -39 -60 -10 -67 53 -13 23
19 42 31 42 27 0 -19 -53 -139 -91 -206 -22 -39 -38 -74 -36 -80 5 -16 118
104 164 176 72 111 137 273 167 419 21 103 21 130 -1 126 -12 -2 -20 -17 -26
-48 -13 -72 -39 -149 -56 -163 -12 -10 -14 -9 -7 8 34 84 -9 344 -58 353 -17
4 -18 0 -13 -42z"/>
<path d="M860 1841 c0 -13 21 -28 121 -87 103 -61 124 -66 117 -29 -5 22 -1
26 36 36 50 13 66 26 66 50 0 22 -7 23 -40 4 -40 -23 -130 -18 -208 10 -75 27
-92 30 -92 16z"/>
<path d="M2282 2183 l-22 -4 2 -281 3 -280 80 0 80 0 1 98 0 99 -3 -92 -4 -93
-74 0 -75 0 0 270 0 270 143 0 c133 0 147 -2 194 -26 61 -30 93 -83 94 -155 0
-39 1 -41 10 -19 6 13 7 36 3 50 -4 14 -8 31 -10 38 -8 42 -80 102 -144 120
-22 7 -251 11 -278 5z"/>
</g>
</svg>
